Coordinates
version=1
nRows=8
nColumns=33
inDegrees=yes

Units are S.I. units (second, meters, Newtons, ...)
Angles are in degrees.

endheader
time	ground_thorax_rot_x	ground_thorax_rot_y	ground_thorax_rot_z	ground_thorax_tx	ground_thorax_ty	ground_thorax_tz	clav_prot_r	clav_elev_r	scapula_abduction_r	scapula_elevation_r	scapula_upward_rot_r	scapula_winging_r	shoulder_elv_r	plane_of_elev_r	axial_rot_r	elbow_flexion_r	pro_sup_r	wrist_flex_r	wrist_dev_r	clav_prot_l	clav_elev_l	scapula_abduction_l	scapula_elevation_l	scapula_upward_rot_l	scapula_winging_l	shoulder_elv_l	plane_of_elev_l	axial_rot_l	elbow_flexion_l	pro_sup_l	wrist_flex_l	wrist_dev_l
     13.38000000	    -35.14858237	      7.80075636	     -5.37709058	     56.96240212	    757.23019353	    -33.27377860	     11.45233584	    -45.00000000	     45.00000000	    -45.00000000	     -0.81567713	  -1165.77342763	  -3171.58102607	     20.14600924	    179.99999979	   1804.32498072	   -174.11219848	     10.78940777	     12.62850707	     19.16915055	     24.54396023	    -45.00000000	    -42.35457035	    -45.00000000	  -2452.64365462	   -981.30060060	     21.47956351	   -179.99999979	   1074.24555040	    478.90164804	     10.26727326	     -7.89510932
     13.39000000	    -35.31275642	      7.79145484	     -5.22630186	     56.64657518	    757.01161922	    -33.21937729	     12.01871456	    -45.00000000	     45.00000000	    -45.00000000	     -1.17620802	  -1165.65628244	  -3171.61672451	     20.03106138	    179.99999979	   1804.39595432	   -175.44000178	     10.79117726	     12.74067686	     19.38379521	     24.87230692	    -45.00000000	    -42.63353250	    -45.00000000	  -2452.86398704	   -981.63903846	     21.24885458	   -179.99999979	   1074.40211733	    479.25645533	     10.39048223	     -8.31228682
     13.40000000	    -35.35942721	      7.81876563	     -4.95010266	     56.22243903	    756.84261699	    -33.15949763	     11.61369299	    -45.00000000	     45.00000000	    -45.00000000	     -0.98364331	  -1165.83609200	  -3171.64586841	     19.94877695	    179.99999979	   1804.56941753	   -176.24826344	     10.54280019	     12.79056914	     19.34201907	     24.70773558	    -45.00000000	    -42.32017970	    -45.00000000	  -2452.52331249	   -981.59960070	     21.45938144	   -179.99999979	   1074.60263790	    479.60487411	      9.84958352	     -8.05130713
     13.41000000	    -35.52340434	      7.95138402	     -5.13034179	     55.69481442	    756.71456273	    -33.09061165	     12.04578291	    -45.00000000	     45.00000000	    -45.00000000	     -1.30385734	  -1165.63569798	  -3171.68619294	     19.98011871	    179.99999979	   1804.46979341	   -176.88931018	     10.71359137	     12.84500310	     19.32488896	     24.88130759	    -45.00000000	    -42.61388909	    -45.00000000	  -2452.83067790	   -981.72678443	     21.09573306	   -179.99999979	   1074.77951112	    479.75110135	     10.24742178	     -8.54151171
     13.42000000	    -35.59222016	      8.08219574	     -5.09413538	     55.07635501	    756.62827948	    -33.01283728	     11.80002130	    -45.00000000	     45.00000000	    -45.00000000	     -1.37085990	  -1165.78333509	  -3171.66321874	     20.10396020	    179.99999979	   1804.56447325	   -177.31581634	     10.56144929	     12.90234159	     19.39299919	     24.84399239	    -45.00000000	    -42.52703344	    -45.00000000	  -2452.52214595	   -981.80695783	     21.27229132	   -179.99999979	   1074.75774923	    479.94590363	      9.78774175	     -8.29810982
     13.43000000	    -35.74274780	      8.19756073	     -4.96820272	     54.36971914	    756.58165769	    -32.92595414	     12.03150654	    -45.00000000	     45.00000000	    -45.00000000	     -1.24134982	  -1165.76444842	  -3171.69917557	     19.92393917	    179.99999979	   1804.73010390	   -177.63641926	     10.72376214	     12.97726284	     19.30635318	     24.88640286	    -45.00000000	    -42.74986476	    -45.00000000	  -2452.72640267	   -981.94989634	     21.02216884	   -179.99999979	   1074.85688544	    479.89749236	     10.14308788	     -8.87711791
     13.44000000	    -35.84674301	      8.45339987	     -5.14432286	     53.57876227	    756.57337966	    -32.83060396	     11.77180858	    -45.00000000	     45.00000000	    -45.00000000	     -1.47202992	  -1165.93074426	  -3171.72119659	     20.13546306	    179.99999979	   1804.55682084	   -177.85217258	     10.49561669	     12.97068597	     19.54733677	     25.08977154	    -45.00000000	    -42.64876206	    -45.00000000	  -2452.24363818	   -981.87891714	     21.32373603	   -179.99999979	   1074.71243792	    480.04709853	      9.41552294	     -8.17599621
     13.45000000	    -35.96912399	      8.56327195	     -5.21826052	     52.69845275	    756.60371264	    -32.72637638	     12.00613031	    -45.00000000	     45.00000000	    -45.00000000	     -1.43620603	  -1165.80223768	  -3171.71572188	     20.09217001	    179.99999979	   1804.61806921	   -178.11961881	     10.74778941	     13.01157646	     19.37225008	     25.09277820	    -45.00000000	    -42.88143176	    -45.00000000	  -2452.64161104	   -981.96204043	     20.90819528	   -179.99999979	   1075.03046627	    479.88796540	      9.96813306	     -8.82007849
